<svg width="1127" height="633" viewBox="0 0 1127 633" fill="none" xmlns="http://www.w3.org/2000/svg">
<path fill-rule="evenodd" clip-rule="evenodd" d="M95.5801 342.237L110.126 345.369L106.973 360.008L103.821 374.648L100.668 389.287L86.1224 386.154L89.275 371.515L74.7294 368.383L77.882 353.744L92.4275 356.876L95.5801 342.237ZM121.519 363.141L106.973 360.008L103.821 374.648L118.366 377.78L121.519 363.141Z" fill="#D7D7D7"/>
<rect x="409.349" y="409.808" width="15.9418" height="14.9747" transform="rotate(12.1532 409.349 409.808)" fill="#D7D7D7"/>
<rect x="436.326" y="430.935" width="16.0443" height="14.879" transform="rotate(102.153 436.326 430.935)" fill="#D7D7D7"/>
<rect x="402.818" y="440.132" width="15.9418" height="14.9747" transform="rotate(12.1532 402.818 440.132)" fill="#D7D7D7"/>
<rect x="406.196" y="424.447" width="16.0443" height="14.879" transform="rotate(102.153 406.196 424.447)" fill="#D7D7D7"/>
<path d="M284.292 243.373C291.138 199.805 362.153 270.535 432.251 124.245C487.871 8.1699 544 213.062 679 220.062C798.234 226.244 1029.5 63.0625 1133.5 381.063" stroke="url(#paint0_linear_308_363)" stroke-width="3"/>
<path d="M209.885 197.085C127.803 164.792 60.4135 274.929 36.979 334.034C12.2799 418.392 94.6907 422.731 150.382 405.561C201.669 384.576 228.628 370.597 261.39 381.253C279.16 387.034 289.564 395.848 346.534 446.835C403.503 497.821 441.889 490.925 459.364 463.354C527.181 356.353 433.629 255.72 399.388 236.96C365.146 218.199 336.633 238.199 300.561 236.387C264.488 234.574 232.284 206.132 209.885 197.085Z" stroke="url(#paint1_linear_308_363)" stroke-width="3"/>
<path d="M48.1164 313.559C52.675 314.541 57.1719 311.615 58.1606 307.024C59.1492 302.434 56.2552 297.916 51.6965 296.935C47.1379 295.953 42.6409 298.879 41.6523 303.469C40.6637 308.06 43.5577 312.578 48.1164 313.559Z" fill="#FF2E93"/>
<path d="M412.118 489.327C416.677 490.309 421.174 487.383 422.163 482.792C423.151 478.201 420.257 473.684 415.699 472.702C411.14 471.72 406.643 474.646 405.654 479.237C404.666 483.828 407.56 488.345 412.118 489.327Z" fill="#142664"/>
<path d="M419.923 259.16C423.076 259.838 426.186 257.814 426.87 254.638C427.554 251.462 425.553 248.336 422.4 247.657C419.247 246.978 416.137 249.003 415.453 252.179C414.769 255.355 416.77 258.481 419.923 259.16Z" fill="#00E6B3"/>
<ellipse cx="284.845" cy="186.851" rx="29.7581" ry="31.5538" transform="rotate(12.1532 284.845 186.851)" fill="black"/>
<path d="M273.516 234.964C302.424 239.123 328.576 243.027 329.227 238.534C329.878 234.041 304.782 222.853 275.874 218.694C246.965 214.534 228.026 216.74 221.417 219.693C221.079 221.262 244.607 230.804 273.516 234.964Z" fill="#C02771"/>
<path d="M357.24 315.343C370.506 302.574 376.245 287.501 372.43 285.039C369.401 281.848 357.839 288.153 344.573 300.922C331.306 313.691 326.597 326.79 329.626 329.981C332.656 333.172 343.973 328.112 357.24 315.343Z" fill="#C02771"/>
<path d="M201.576 306.782C207.167 303.667 206.176 287.858 197.341 271.721C188.506 255.584 180.541 243.226 174.95 246.34C169.359 249.455 168.258 266.863 177.093 283C185.928 299.137 195.985 309.896 201.576 306.782Z" fill="#C02771"/>
<path fill-rule="evenodd" clip-rule="evenodd" d="M331.047 197.25C330.452 200.012 329.893 202.786 329.333 205.56C328.79 208.253 328.246 210.945 327.671 213.628C337.836 213.528 358.642 210.489 373.468 208.323C380.707 207.265 386.521 206.416 388.974 206.219C391.466 206.019 395.726 204.884 400.937 203.495C413.492 200.15 431.567 195.335 443.74 198.573C460.965 203.156 501.972 251.849 501.972 251.849C504.33 256.507 504.292 262.724 498.554 262.689C492.816 262.655 475.914 244.49 475.914 244.49C475.914 244.49 480.343 270.235 474.369 266.764C469.231 263.779 464.192 248.053 462.882 243.709C463.175 245.28 463.429 248.853 462.497 256.453C461.06 268.157 454.878 262.13 453.62 258.91C452.259 255.668 454.215 237.524 454.215 237.524C454.215 237.524 450.232 245.949 446.905 249.819C443.601 253.585 439.343 250.703 439.856 238.254C440.657 227.996 438.015 220.504 437.027 217.702L437.026 217.7C436.798 217.051 436.658 216.654 436.67 216.533C429.95 219.431 352.325 230.159 321.761 234.305C313.425 253.259 294.405 263.08 272.858 259.755C268.13 259.107 263.478 257.99 258.972 256.419C238.567 248.89 227.912 234.387 229.397 212.996C204.689 197.548 135.193 153.884 130.14 148.345C130.101 148.46 129.81 148.765 129.334 149.263C127.28 151.41 121.788 157.151 118.296 166.829C113.639 178.385 108.572 179.26 107.111 174.468C105.649 169.675 105.51 160.253 105.51 160.253C105.51 160.253 99.8245 177.594 97.2492 179.989C94.7775 182.405 86.6624 185.353 90.1709 174.096C92.4492 166.785 94.1519 163.634 95.0658 162.323C92.0833 165.743 81.0175 178 75.1068 178.606C68.2339 179.31 82.8674 157.67 82.8674 157.67C82.8674 157.67 59.9415 167.477 54.7203 165.042C49.4766 162.711 51.8974 157.007 56.0668 153.755C56.0668 153.755 113.482 126.258 131.089 129.067C143.539 131.053 158.034 142.926 168.095 151.167L168.095 151.167C172.262 154.581 175.668 157.371 177.853 158.577C180.008 159.767 184.957 162.934 191.119 166.877C204.773 175.615 224.384 188.166 232.76 191.465C235.764 175.442 239.549 159.573 244.103 143.914C250.153 123.051 268.256 112.084 289.77 113.766C303.553 114.835 316.344 118.704 326.341 128.894C336.944 139.67 339.509 153.063 337.177 167.505C335.973 174.997 334.319 182.444 332.668 189.879L332.667 189.883C332.121 192.34 331.576 194.795 331.047 197.25ZM310.566 193.107C311.798 187.702 311.409 182.055 309.447 176.885C307.486 171.714 304.041 167.253 299.55 164.067C295.06 160.882 289.726 159.116 284.228 158.995C282.149 158.949 280.082 159.139 278.064 159.555C278.569 160.378 278.931 161.287 279.131 162.244C279.472 163.877 279.325 165.576 278.708 167.128C278.092 168.68 277.034 170.015 275.668 170.964C274.301 171.913 272.688 172.435 271.031 172.462C269.374 172.49 267.748 172.023 266.357 171.119C265.086 170.294 264.064 169.137 263.396 167.776C261.215 170.1 259.432 172.796 258.14 175.754C255.922 180.833 255.25 186.456 256.21 191.909C257.17 197.363 259.719 202.4 263.531 206.381C267.344 210.363 272.25 213.108 277.624 214.269C281.161 215.078 284.824 215.172 288.401 214.543C291.978 213.915 295.398 212.578 298.462 210.609C301.527 208.641 304.175 206.08 306.252 203.075C308.33 200.071 309.797 196.683 310.566 193.107Z" fill="#00E6B3"/>
<path d="M447.681 388.175C448.563 387.601 494.528 346.825 489.412 337.861C485.673 335.089 480.009 340.75 480.009 340.75C480.009 340.75 483.482 331.669 480.468 329.054C477.476 326.335 469.064 329.656 468.281 331.781C467.395 333.883 470.642 323.334 464.777 320.87C458.934 318.301 454.264 329.418 454.264 329.418C454.264 329.418 457.028 305.004 445.011 304.928C432.994 304.852 432.894 356.159 433.156 357.963C433.418 359.767 358.06 291.881 358.06 291.881L337.983 296.221L337.425 311.419C337.529 311.441 433.498 398.663 447.681 388.175Z" fill="#00E6B3"/>
<path d="M76.3781 325.183C75.6841 324.378 42.963 272.446 50.252 265.279C54.6023 263.704 58.5237 270.664 58.5237 270.664C58.5237 270.664 57.6819 260.981 61.3069 259.25C64.9319 257.519 72.1001 262.994 72.2722 265.216C72.5479 267.459 72.3091 256.487 78.6639 255.671C85.0188 254.855 86.3435 266.826 86.3435 266.826C86.3435 266.826 90.477 242.598 102.027 245.85C113.576 249.101 99.369 298.463 98.6985 300.066C98.0056 301.773 189.212 257.308 189.212 257.308L203.121 281.818C203.099 281.922 87.1306 339.184 76.3781 325.183Z" fill="#00E6B3"/>
<path d="M175.272 246.136L221.756 219.561C221.756 219.561 277.769 250.927 326.676 235.249C330.009 234.875 372.894 285.418 372.894 285.418C372.894 285.418 338.149 293.225 330.17 330.276C330.756 332.587 271.599 287.63 263.237 271.086C264.117 274.552 201.322 306.897 201.322 306.897C201.322 306.897 196.851 268.257 175.272 246.136Z" fill="#FF2E93"/>
<defs>
<linearGradient id="paint0_linear_308_363" x1="593.318" y1="146.955" x2="559.78" y2="302.688" gradientUnits="userSpaceOnUse">
<stop stop-color="#00E6B3"/>
<stop offset="0.557292" stop-color="#FF2E93"/>
<stop offset="1" stop-color="#142664"/>
</linearGradient>
<linearGradient id="paint1_linear_308_363" x1="289.476" y1="210.906" x2="240.011" y2="445.992" gradientUnits="userSpaceOnUse">
<stop stop-color="#00E6B3"/>
<stop offset="0.557292" stop-color="#FF2E93"/>
<stop offset="1" stop-color="#142664"/>
</linearGradient>
</defs>
</svg>
