<svg width="32" height="32" viewBox="0 0 32 32" fill="none" xmlns="http://www.w3.org/2000/svg">
<path d="M18.5277 16L31.3451 0.72168C31.56 0.467774 31.3793 0.0820312 31.0473 0.0820312H27.1508C26.9213 0.0820312 26.7016 0.18457 26.5502 0.360351L15.9789 12.9629L5.40762 0.360351C5.26113 0.18457 5.04141 0.0820312 4.80703 0.0820312H0.910548C0.578516 0.0820312 0.397852 0.467774 0.612696 0.72168L13.4301 16L0.612696 31.2783C0.564569 31.3349 0.533694 31.4041 0.523734 31.4778C0.513775 31.5514 0.525151 31.6263 0.556511 31.6937C0.587871 31.761 0.6379 31.8179 0.700655 31.8577C0.763411 31.8975 0.836257 31.9184 0.910548 31.918H4.80703C5.03652 31.918 5.25625 31.8154 5.40762 31.6397L15.9789 19.0371L26.5502 31.6397C26.6967 31.8154 26.9164 31.918 27.1508 31.918H31.0473C31.3793 31.918 31.56 31.5322 31.3451 31.2783L18.5277 16Z" fill="white"/>
</svg>
