<svg xmlns="http://www.w3.org/2000/svg" xmlns:xlink="http://www.w3.org/1999/xlink" width="88" height="128" viewBox="0 0 88 128">
  <defs>
    <filter id="Path_56025" x="0" y="0" width="88" height="128" filterUnits="userSpaceOnUse">
      <feOffset dy="3" input="SourceAlpha"/>
      <feGaussianBlur stdDeviation="3" result="blur"/>
      <feFlood flood-opacity="0.161"/>
      <feComposite operator="in" in2="blur"/>
      <feComposite in="SourceGraphic"/>
    </filter>
  </defs>
  <g id="block_label" transform="translate(-1814 6)">
    <g transform="matrix(1, 0, 0, 1, 1814, -6)" filter="url(#Path_56025)">
      <path id="Path_56025-2" data-name="Path 56025" d="M0,0H110L99.441,33.985,110,70H0Z" transform="translate(79 6) rotate(90)" fill="#3598db"/>
    </g>
    <g id="_1615400181696" transform="translate(1830 28)">
      <path id="Path_45141" data-name="Path 45141" d="M61203.895,72003.773l-.273.406A1.011,1.011,0,0,1,61203.895,72003.773Zm9.547,6.844c2.352-10.773-7.648-8.789-9.547-6.844a11.581,11.581,0,0,1,1.852-2.422c-3.461-2.328-6.617,1.125-6.617,1.125a2.99,2.99,0,0,0-1.109-2.406,4.775,4.775,0,0,1-1.234,1.781c1-4.414-.7-6.211-3.953-5.906,0-13.109,10.938-23.734,24.438-23.734a25.042,25.042,0,0,1,9.742,1.953l2.82-2.1a28.255,28.255,0,0,0-12.562-2.93c-15.266,0-27.617,12.016-27.617,26.813s12.352,26.8,27.617,26.8c15.242,0,27.594-12,27.594-26.8a26.034,26.034,0,0,0-4.25-14.3l-1.609,3.438a23.078,23.078,0,0,1,2.7,10.859,23.805,23.805,0,0,1-15.875,22.25c-2.2-3.219-4.984-1.523-6.016-.469.664-1.32,1.008-1.859,1.008-1.859a3.6,3.6,0,0,0-4.133,2.008c-.219-1.523-.234-1.867-.234-1.867a9.99,9.99,0,0,1-2.086,1.3c6.156-6.055.852-9.836.852-9.836A6.651,6.651,0,0,1,61213.441,72010.617Z" transform="translate(-61189.652 -71969.133)" fill="#fff" fill-rule="evenodd"/>
      <g id="Group_420" data-name="Group 420" transform="translate(19.949 0.579)">
        <path id="Path_45142" data-name="Path 45142" d="M62409.8,72012.969a13.336,13.336,0,0,0,5.945,5.664c20.313-11.844,18.039-24.4,18.039-24.4s.016-.312-.391-.437C62433.391,71993.8,62419.672,71992.906,62409.8,72012.969Zm22.789-14.187s-5.383,4.2-4.734,8.906A21.561,21.561,0,0,0,62432.586,71998.781Zm-14.023,8.938a1.419,1.419,0,0,0,.164,1.984,1.4,1.4,0,0,0,1.984-.148,1.416,1.416,0,0,0-.148-1.984A1.443,1.443,0,0,0,62418.563,72007.719Zm-2.82,3.469a1.017,1.017,0,1,0,1.43-.094A1.013,1.013,0,0,0,62415.742,72011.188Z" transform="translate(-62401.09 -71993.789)" fill="#fff" fill-rule="evenodd"/>
        <path id="Path_45143" data-name="Path 45143" d="M62386,72855.633a14.873,14.873,0,0,0,4.359,4.344l.961-.352a17.707,17.707,0,0,1-4.984-4.836A8.43,8.43,0,0,1,62386,72855.633Z" transform="translate(-62377.855 -72834.586)" fill="#fff" fill-rule="evenodd"/>
        <path id="Path_45144" data-name="Path 45144" d="M62664.141,72893.758a5.025,5.025,0,0,1-.742-4.508,69.989,69.989,0,0,1-6.547,4.344c1.422.773-1.062,7.438-1.062,7.438l.711.656Z" transform="translate(-62641.313 -72868.25)" fill="#fff" fill-rule="evenodd"/>
        <path id="Path_45145" data-name="Path 45145" d="M62047.1,72490.1a65.1,65.1,0,0,1,3.711-6.383,4.626,4.626,0,0,1-3.992-.7l-7.641,7.953.672.672C62046.383,72489.172,62047.1,72490.1,62047.1,72490.1Z" transform="translate(-62039.18 -72471.523)" fill="#fff" fill-rule="evenodd"/>
      </g>
      <path id="Path_45146" data-name="Path 45146" d="M62136.961,72964.82c.078-.023.586-.391.758-.469l.273-.2a1.743,1.743,0,0,0,.258-.156c.07-.031.18-.1.266-.141l.586-.289c.8-.273.367.563.227.859a2.549,2.549,0,0,1-.141.3l-.281.555a.837.837,0,0,1-.156.273l-.742,1.359c-.383.586-.727,1.281-1.086,1.9a1.685,1.685,0,0,0-.141.266c-.062.125-.117.133-.164.258l-.312.57c.156-.109.617-.539.875-.7.766-.586,1.484-1.141,2.281-1.742.148-.094.18-.164.336-.258l.734-.531c.109-.086.266-.164.352-.234.227-.164,1.023-.734,1.258-.578.258.164-.3,1.438-.453,1.711-.094.172-.117.3-.3.641a1.583,1.583,0,0,0-.164.367c2.125-.727,4.914-5.336,3.117-6.445-.023,1.375-.633,3.25-2.164,3.617a7.725,7.725,0,0,0,.547-1.266l.023-.2c.039-.531-1.187.453-1.359.586-.258.188-.484.383-.734.555-.3.2-.641.539-.937.727a3.748,3.748,0,0,1-.461.352c.07-.164.539-.93.688-1.234.031-.047.039-.047.047-.086l.047-.078c.117-.125.57-1.023.711-1.227.984-1.687.109-1.187-.953-.492-.062.047-.094.047-.172.1a3.651,3.651,0,0,1,3.281-2.609C62142.141,72959.313,62137.445,72962.164,62136.961,72964.82Z" transform="translate(-62114.074 -72937.18)" fill="#fff" fill-rule="evenodd"/>
    </g>
    <rect id="Rectangle_1429" data-name="Rectangle 1429" width="70" height="6" transform="translate(1823)" fill="#83bee6"/>
  </g>
</svg>
